<?xml version="1.0" standalone="no"?>
<!DOCTYPE svg PUBLIC "-//W3C//DTD SVG 20010904//EN"
 "http://www.w3.org/TR/2001/REC-SVG-20010904/DTD/svg10.dtd">
<svg version="1.0" xmlns="http://www.w3.org/2000/svg"
 width="700.000000pt" height="700.000000pt" viewBox="0 0 700.000000 700.000000"
 preserveAspectRatio="xMidYMid meet">
<metadata>
Created by potrace 1.11, written by Peter Selinger 2001-2013
</metadata>
<g transform="translate(0.000000,700.000000) scale(0.100000,-0.100000)"
fill="#000000" stroke="none">
<path d="M899 6996 c-2 -2 -26 -6 -54 -10 -313 -37 -619 -269 -757 -574 -96
-211 -110 -499 -37 -714 101 -293 321 -518 607 -622 71 -25 94 -31 162 -42 19
-3 41 -7 49 -10 17 -6 207 -6 236 -1 11 3 42 8 69 12 128 18 314 103 430 195
408 325 498 894 209 1332 -137 208 -380 369 -633 419 -54 10 -273 22 -281 15z
m278 -286 c198 -51 372 -193 462 -375 53 -106 73 -189 77 -308 8 -292 -145
-542 -411 -674 -102 -51 -176 -67 -310 -67 -203 0 -354 58 -496 192 -237 223
-300 557 -159 847 151 313 497 471 837 385z"/>
<path d="M3399 6996 c-2 -2 -24 -6 -49 -9 -145 -19 -324 -95 -450 -192 -175
-135 -308 -336 -361 -546 -27 -108 -34 -314 -14 -415 120 -615 739 -968 1323
-753 241 88 464 300 561 533 57 137 75 227 75 381 1 179 -11 244 -69 390 -85
212 -247 389 -458 500 -77 41 -207 86 -287 100 -39 7 -266 16 -271 11z m231
-273 c19 -3 40 -7 47 -9 135 -27 316 -149 408 -275 152 -205 183 -492 80 -725
-76 -171 -231 -319 -407 -386 -180 -68 -411 -57 -579 28 -242 122 -396 360
-403 624 -4 135 16 229 76 350 43 87 66 119 133 186 172 174 413 252 645 207z"/>
<path d="M5865 6988 c-293 -49 -537 -207 -687 -445 -120 -189 -159 -332 -153
-563 3 -159 25 -259 86 -389 242 -522 881 -727 1385 -446 258 145 452 426 492
715 9 60 8 254 -1 308 -39 243 -179 474 -379 628 -113 88 -286 163 -433 189
-60 11 -253 13 -310 3z m328 -279 c394 -100 630 -519 513 -909 -97 -320 -394
-530 -730 -516 -317 14 -581 224 -668 533 -17 61 -22 105 -22 198 0 109 3 129
33 214 38 111 83 189 154 267 184 202 454 282 720 213z"/>
<path d="M860 4483 c-382 -55 -703 -328 -814 -693 -33 -108 -37 -140 -40 -274
-11 -488 329 -900 819 -993 50 -9 288 -10 335 0 486 96 818 490 821 972 1 171
-26 283 -108 451 -132 273 -396 469 -713 530 -60 11 -241 16 -300 7z m309
-278 c275 -71 482 -291 537 -570 19 -98 12 -252 -16 -340 -84 -265 -290 -453
-558 -508 -132 -27 -302 -10 -419 44 -24 10 -45 19 -48 19 -20 0 -151 100
-196 149 -74 81 -75 82 -119 164 -58 107 -83 209 -82 337 1 58 3 115 6 128 22
89 24 94 39 132 67 178 219 335 392 407 56 24 155 51 200 56 66 7 205 -2 264
-18z"/>
<path d="M3285 4465 c-197 -45 -348 -129 -489 -271 -380 -382 -378 -1010 5
-1393 187 -187 432 -289 694 -289 161 -1 286 28 442 100 241 111 450 365 518
627 25 100 27 114 30 241 5 175 -28 326 -102 468 -211 405 -660 617 -1098 517z
m348 -249 c56 -11 168 -51 207 -75 19 -11 42 -24 50 -28 8 -3 37 -25 65 -47
179 -147 275 -355 270 -581 -10 -388 -311 -695 -697 -709 -255 -10 -482 106
-633 323 -120 172 -156 444 -83 636 93 246 280 415 520 470 40 9 78 18 83 19
19 5 180 -1 218 -8z"/>
<path d="M869 1976 c-2 -2 -25 -7 -51 -10 -66 -9 -189 -51 -272 -92 -279 -140
-476 -407 -530 -720 -17 -97 -13 -273 8 -369 77 -353 331 -631 675 -739 111
-35 161 -41 316 -40 181 2 337 45 488 136 222 134 398 374 453 618 4 19 8 37
9 40 39 169 14 398 -64 580 -58 134 -107 205 -216 315 -181 181 -400 273 -671
281 -77 3 -142 3 -145 0z m314 -285 c165 -45 313 -149 407 -286 39 -56 95
-177 104 -225 4 -19 10 -48 14 -65 15 -69 6 -239 -17 -320 -74 -267 -293 -467
-567 -518 -313 -60 -636 101 -783 390 -135 267 -87 597 121 818 184 197 465
277 721 206z"/>
<path d="M3343 1971 c-264 -42 -522 -210 -669 -436 -112 -173 -155 -311 -160
-520 -3 -111 0 -146 21 -239 50 -220 162 -402 341 -554 33 -29 64 -52 69 -52
5 0 16 -6 24 -14 9 -8 48 -30 86 -49 297 -148 642 -140 928 21 260 146 424
375 493 687 13 59 13 280 0 345 -56 283 -203 505 -435 658 -164 108 -309 153
-511 158 -74 1 -158 -1 -187 -5z m297 -266 c203 -38 393 -177 498 -365 30 -54
67 -157 78 -215 15 -78 10 -216 -10 -310 -25 -117 -108 -256 -209 -352 -134
-127 -294 -192 -482 -197 -415 -11 -757 336 -740 752 14 345 267 635 600 688
22 3 42 7 43 9 6 5 183 -3 222 -10z"/>
<path d="M5900 1977 c-3 -3 -28 -7 -56 -11 -223 -26 -485 -188 -634 -390 -86
-118 -157 -289 -179 -431 -7 -48 -6 -278 1 -320 11 -61 41 -162 64 -216 22
-53 90 -178 103 -189 3 -3 19 -22 34 -42 100 -134 285 -266 452 -323 158 -54
362 -67 518 -35 397 83 695 383 778 782 23 114 21 307 -5 408 -52 201 -141
358 -278 489 -79 77 -102 95 -183 144 -145 87 -318 134 -501 136 -61 1 -112 0
-114 -2z m290 -281 c252 -68 456 -270 521 -516 109 -413 -158 -831 -577 -904
-65 -12 -202 -13 -244 -3 -8 2 -33 7 -54 12 -179 36 -365 181 -466 360 -82
146 -109 359 -66 525 19 73 84 212 118 251 13 15 34 39 48 55 70 82 201 170
298 201 136 44 301 51 422 19z"/>
</g>
</svg>
